<svg xmlns="http://www.w3.org/2000/svg" width="1600" height="900" viewBox="0 0 1600 900" role="img" aria-label="Portfolio 10 thumbnail">
  <defs>
    <linearGradient id="bg" x1="0" y1="0" x2="1" y2="1">
      <stop offset="0" stop-color="#121a14" />
      <stop offset="1" stop-color="#08100a" />
    </linearGradient>
    <linearGradient id="accent" x1="0" y1="0" x2="1" y2="0">
      <stop offset="0" stop-color="#00c2de" stop-opacity="0.9" />
      <stop offset="1" stop-color="#00c2de" stop-opacity="0" />
    </linearGradient>
  </defs>

  <rect width="1600" height="900" fill="url(#bg)" />
  <rect x="0" y="120" width="1600" height="10" fill="url(#accent)" />
  <rect x="0" y="770" width="1600" height="10" fill="url(#accent)" />

  <text x="90" y="250" fill="#ffffff" font-family="Roboto, Arial, sans-serif" font-size="64" font-weight="700">Portfolio 10</text>
  <text x="90" y="340" fill="#d9f2db" font-family="Roboto, Arial, sans-serif" font-size="44" font-weight="500">Bamboo Spa</text>
  <text x="90" y="410" fill="#9adfed" font-family="Roboto, Arial, sans-serif" font-size="30">bamboospa.co.nz</text>

  <g opacity="0.22" fill="#00c2de">
    <path d="M1180 610c140-20 240-120 260-260-140 20-240 120-260 260z" />
    <path d="M1290 680c110-10 200-90 220-200-110 10-200 90-220 200z" />
    <path d="M1120 690c80-10 140-60 150-150-80 10-140 60-150 150z" />
  </g>
</svg>
